<svg width="24" height="24" viewBox="0 0 24 24" fill="none" xmlns="http://www.w3.org/2000/svg">
<g clip-path="url(#clip0_2788_2872)">
<path d="M12 15C13.1046 15 14 14.1046 14 13C14 11.8954 13.1046 11 12 11C10.8954 11 10 11.8954 10 13C10 14.1046 10.8954 15 12 15Z" stroke="#5E5F5A" stroke-width="1.5" stroke-linecap="round" stroke-linejoin="round"/>
<path d="M13.45 11.55L15.5 9.5" stroke="#5E5F5A" stroke-width="1.5" stroke-linecap="round" stroke-linejoin="round"/>
<path d="M6.4 20.0002C4.93815 18.8382 3.87391 17.2504 3.35478 15.4566C2.83564 13.6629 2.88732 11.752 3.50265 9.98896C4.11797 8.22588 5.26647 6.69786 6.78899 5.61665C8.3115 4.53544 10.1326 3.95459 12 3.95459C13.8674 3.95459 15.6885 4.53544 17.211 5.61665C18.7335 6.69786 19.882 8.22588 20.4974 9.98896C21.1127 11.752 21.1644 13.6629 20.6452 15.4566C20.1261 17.2504 19.0619 18.8382 17.6 20.0002H6.4Z" stroke="#5E5F5A" stroke-width="1.5" stroke-linecap="round" stroke-linejoin="round"/>
</g>
<defs>
<clipPath id="clip0_2788_2872">
<rect width="24" height="24" fill="white"/>
</clipPath>
</defs>
</svg>
